<?xml version="1.0" encoding="UTF-8" standalone="no"?>
<!-- Generator: Adobe Illustrator 19.0.0, SVG Export Plug-In . SVG Version: 6.00 Build 0)  -->

<svg
   xmlns:dc="http://purl.org/dc/elements/1.1/"
   xmlns:cc="http://creativecommons.org/ns#"
   xmlns:rdf="http://www.w3.org/1999/02/22-rdf-syntax-ns#"
   xmlns:svg="http://www.w3.org/2000/svg"
   xmlns="http://www.w3.org/2000/svg"
   xmlns:sodipodi="http://sodipodi.sourceforge.net/DTD/sodipodi-0.dtd"
   xmlns:inkscape="http://www.inkscape.org/namespaces/inkscape"
   version="1.1"
   id="Capa_1"
   x="0px"
   y="0px"
   viewBox="0 0 59.986 59.986"
   style="enable-background:new 0 0 59.986 59.986;"
   xml:space="preserve"
   sodipodi:docname="attached.svg"
   inkscape:version="0.92.4 (5da689c313, 2019-01-14)"><metadata
   id="metadata39"><rdf:RDF><cc:Work
       rdf:about=""><dc:format>image/svg+xml</dc:format><dc:type
         rdf:resource="http://purl.org/dc/dcmitype/StillImage" /></cc:Work></rdf:RDF></metadata><defs
   id="defs37"><marker
     inkscape:stockid="Arrow1Lstart"
     orient="auto"
     refY="0.0"
     refX="0.0"
     id="Arrow1Lstart"
     style="overflow:visible"
     inkscape:isstock="true"><path
       id="path846"
       d="M 0.0,0.0 L 5.0,-5.0 L -12.5,0.0 L 5.0,5.0 L 0.0,0.0 z "
       style="fill-rule:evenodd;stroke:none;stroke-width:1pt;stroke-opacity:1;fill:#000000;fill-opacity:1"
       transform="scale(0.8) translate(12.5,0)" /></marker></defs><sodipodi:namedview
   pagecolor="#ffffff"
   bordercolor="#666666"
   borderopacity="1"
   objecttolerance="10"
   gridtolerance="10"
   guidetolerance="10"
   inkscape:pageopacity="0"
   inkscape:pageshadow="2"
   inkscape:window-width="2560"
   inkscape:window-height="1322"
   id="namedview35"
   showgrid="false"
   inkscape:zoom="3.9342513"
   inkscape:cx="29.993"
   inkscape:cy="29.993"
   inkscape:window-x="2560"
   inkscape:window-y="27"
   inkscape:window-maximized="0"
   inkscape:current-layer="Capa_1" />
<path
   d="M51.213,8.78C39.517-2.917,20.484-2.916,8.787,8.78C3.121,14.446,0,21.98,0,29.993S3.121,45.54,8.787,51.206  c5.848,5.849,13.531,8.772,21.213,8.772s15.365-2.924,21.213-8.772C62.91,39.509,62.91,20.477,51.213,8.78z M10.201,10.194  C15.66,4.736,22.83,2.007,30,2.007c6.858,0,13.713,2.504,19.074,7.498L42,16.579v-6.479c0-1.127-0.584-2.134-1.563-2.693  c-0.978-0.561-2.143-0.553-3.115,0.019c-0.063,0.037-0.121,0.081-0.174,0.131L23.906,19.884c-0.149,0.072-0.313,0.109-0.479,0.109  h-8.324c-1.711,0-3.104,1.393-3.104,3.104v12.793c0,1.711,1.392,3.104,3.104,3.104h4.482L9.511,49.068  C4.664,43.869,2,37.137,2,29.993C2,22.514,4.913,15.483,10.201,10.194z M21.586,36.993h-6.482c-0.608,0-1.104-0.495-1.104-1.104  V23.096c0-0.608,0.495-1.104,1.104-1.104h8.324c0.551,0,1.095-0.147,1.572-0.428c0.063-0.036,0.122-0.08,0.176-0.131l13.244-12.33  c0.465-0.226,0.868-0.053,1.025,0.037C39.611,9.237,40,9.522,40,10.099v8.479L21.586,36.993z M40,21.407v27.479  c0,0.577-0.389,0.862-0.556,0.958c-0.158,0.09-0.562,0.262-1.025,0.037l-13.244-12.33c-0.054-0.051-0.113-0.095-0.176-0.131  c-0.224-0.132-0.466-0.229-0.713-0.3L40,21.407z M49.799,49.792c-10.68,10.679-27.908,10.904-38.873,0.689l11.488-11.488h1.013  c0.166,0,0.329,0.037,0.479,0.109L37.148,51.43c0.053,0.05,0.112,0.094,0.174,0.131c0.492,0.289,1.033,0.434,1.574,0.434  c0.529,0,1.058-0.138,1.541-0.415C41.416,51.02,42,50.013,42,48.887V19.407l8.488-8.488C60.704,21.884,60.479,39.112,49.799,49.792z  "
   id="path2"
   style="stroke-width:1;stroke-miterlimit:4;stroke-dasharray:none;fill:#ffffff;fill-opacity:1;stroke:#000000;stroke-opacity:1" />
<g
   id="g4">
</g>
<g
   id="g6">
</g>
<g
   id="g8">
</g>
<g
   id="g10">
</g>
<g
   id="g12">
</g>
<g
   id="g14">
</g>
<g
   id="g16">
</g>
<g
   id="g18">
</g>
<g
   id="g20">
</g>
<g
   id="g22">
</g>
<g
   id="g24">
</g>
<g
   id="g26">
</g>
<g
   id="g28">
</g>
<g
   id="g30">
</g>
<g
   id="g32">
</g>
</svg>