<?xml version="1.0" encoding="UTF-8"?>
<svg xmlns="http://www.w3.org/2000/svg" xmlns:xlink="http://www.w3.org/1999/xlink" width="60pt" height="60pt" viewBox="0 0 60 60" version="1.1">
<g id="surface1">
<path style=" stroke:none;fill-rule:nonzero;fill:rgb(0%,0%,0%);fill-opacity:1;" d="M 19.5 1.199219 C 11.601562 4 3.898438 11.898438 1.199219 19.898438 C 0.5 21.800781 0 26.5 0 30.398438 C 0 42.5 5.601562 51.601562 16.199219 56.898438 C 21.398438 59.601562 23.398438 60 30 60 C 36.601562 60 38.601562 59.601562 43.800781 56.898438 C 54.601562 51.5 60 42.601562 60 29.800781 C 60 23.101562 59.601562 21.398438 56.699219 15.898438 C 53.101562 8.898438 46.5 3.101562 40 1.101562 C 35.398438 -0.300781 23.5 -0.199219 19.5 1.199219 Z M 35.898438 15.101562 C 37.699219 16.800781 39.699219 17.898438 40.5 17.699219 C 42.199219 17 45.398438 20.601562 46.898438 24.898438 C 47.5 26.800781 48 28.5 48 28.601562 C 48 28.800781 46.5 29 44.699219 29 C 41.800781 29 41.199219 28.5 40.101562 25.5 C 38.601562 21.199219 34.300781 18.800781 28.800781 19.101562 C 25.398438 19.398438 24.601562 19.101562 23.5 17 C 22.199219 14.699219 22.300781 14.398438 24.800781 13.300781 C 29.300781 11.300781 32.5 11.800781 35.898438 15.101562 Z M 21 23.199219 C 18.5 27.398438 18.5 32.601562 21 36.800781 C 22.601562 39.300781 22.800781 40.5 22 42 C 20.601562 44.601562 19.800781 44.5 17.300781 41.800781 C 13.699219 37.800781 12.898438 35.398438 14.199219 32.601562 C 15 30.601562 15 29.398438 14.199219 27.5 C 12.800781 24.398438 13.800781 21.5 17.601562 17.699219 L 20.398438 14.898438 L 21.699219 17.398438 C 22.898438 19.601562 22.800781 20.300781 21 23.199219 Z M 47.5 33.199219 C 46 38.199219 43.398438 41.398438 40.300781 42.199219 C 38.5 42.699219 36.5 43.898438 35.800781 44.898438 C 33.898438 47.5 30.699219 48.300781 26 47 C 22 45.898438 22 45.898438 23.398438 43.199219 C 24.601562 40.898438 25.300781 40.601562 28.800781 40.898438 C 34.300781 41.199219 38.601562 38.800781 40.101562 34.5 C 41.199219 31.398438 41.800781 31 44.800781 31 C 47.800781 31 48.101562 31.199219 47.5 33.199219 Z M 47.5 33.199219 "/>
</g>
</svg>
